<mxfile host="Electron" modified="2024-05-19T14:58:22.893Z" agent="Mozilla/5.0 (Windows NT 10.0; Win64; x64) AppleWebKit/537.36 (KHTML, like Gecko) draw.io/23.1.5 Chrome/120.0.6099.109 Electron/28.1.0 Safari/537.36" etag="Ysvtjnfz58QljOIvUkYP" version="23.1.5" type="device">
  <diagram name="Page-1" id="T_CTpnBPaCJmKgXKSl00">
    <mxGraphModel dx="1034" dy="511" grid="1" gridSize="10" guides="1" tooltips="1" connect="1" arrows="1" fold="1" page="1" pageScale="1" pageWidth="1169" pageHeight="827" math="0" shadow="0">
      <root>
        <mxCell id="0" />
        <mxCell id="1" parent="0" />
        <mxCell id="qrO7oPqLzRmttPFfa3Ia-4" style="edgeStyle=orthogonalEdgeStyle;rounded=0;orthogonalLoop=1;jettySize=auto;html=1;entryX=0.5;entryY=0;entryDx=0;entryDy=0;fontSize=14;" edge="1" parent="1" source="qrO7oPqLzRmttPFfa3Ia-1" target="qrO7oPqLzRmttPFfa3Ia-3">
          <mxGeometry relative="1" as="geometry" />
        </mxCell>
        <mxCell id="qrO7oPqLzRmttPFfa3Ia-1" value="" style="ellipse;fillColor=strokeColor;html=1;fontSize=14;" vertex="1" parent="1">
          <mxGeometry x="398.5" y="64" width="62.5" height="52" as="geometry" />
        </mxCell>
        <mxCell id="qrO7oPqLzRmttPFfa3Ia-2" value="Start" style="text;html=1;align=center;verticalAlign=middle;resizable=0;points=[];autosize=1;strokeColor=none;fillColor=none;fontSize=14;" vertex="1" parent="1">
          <mxGeometry x="404" y="34" width="50" height="30" as="geometry" />
        </mxCell>
        <mxCell id="qrO7oPqLzRmttPFfa3Ia-5" style="edgeStyle=orthogonalEdgeStyle;rounded=0;orthogonalLoop=1;jettySize=auto;html=1;entryX=0.5;entryY=0;entryDx=0;entryDy=0;fontSize=14;" edge="1" parent="1" source="qrO7oPqLzRmttPFfa3Ia-3" target="qrO7oPqLzRmttPFfa3Ia-7">
          <mxGeometry relative="1" as="geometry">
            <mxPoint x="670" y="200" as="targetPoint" />
          </mxGeometry>
        </mxCell>
        <mxCell id="qrO7oPqLzRmttPFfa3Ia-6" value="Correct Password" style="edgeLabel;html=1;align=center;verticalAlign=middle;resizable=0;points=[];fontSize=14;" vertex="1" connectable="0" parent="qrO7oPqLzRmttPFfa3Ia-5">
          <mxGeometry x="-0.0696" y="2" relative="1" as="geometry">
            <mxPoint x="-126" y="2" as="offset" />
          </mxGeometry>
        </mxCell>
        <mxCell id="qrO7oPqLzRmttPFfa3Ia-16" style="edgeStyle=orthogonalEdgeStyle;rounded=0;orthogonalLoop=1;jettySize=auto;html=1;entryX=0.5;entryY=0;entryDx=0;entryDy=0;fontSize=14;" edge="1" parent="1" source="qrO7oPqLzRmttPFfa3Ia-3" target="qrO7oPqLzRmttPFfa3Ia-9">
          <mxGeometry relative="1" as="geometry" />
        </mxCell>
        <mxCell id="qrO7oPqLzRmttPFfa3Ia-19" value="Incorrect Password" style="edgeLabel;html=1;align=center;verticalAlign=middle;resizable=0;points=[];fontSize=14;" vertex="1" connectable="0" parent="qrO7oPqLzRmttPFfa3Ia-16">
          <mxGeometry x="-0.3" y="1" relative="1" as="geometry">
            <mxPoint y="8" as="offset" />
          </mxGeometry>
        </mxCell>
        <mxCell id="qrO7oPqLzRmttPFfa3Ia-3" value="Login attempt 1" style="rhombus;fontStyle=1;fontSize=14;" vertex="1" parent="1">
          <mxGeometry x="360" y="160" width="140" height="90" as="geometry" />
        </mxCell>
        <mxCell id="qrO7oPqLzRmttPFfa3Ia-7" value="&lt;b style=&quot;font-size: 14px;&quot;&gt;You are Welcome &lt;br style=&quot;font-size: 14px;&quot;&gt;&lt;br style=&quot;font-size: 14px;&quot;&gt;Home page&lt;/b&gt;" style="ellipse;html=1;whiteSpace=wrap;fontSize=14;" vertex="1" parent="1">
          <mxGeometry x="750" y="326" width="150" height="84" as="geometry" />
        </mxCell>
        <mxCell id="qrO7oPqLzRmttPFfa3Ia-11" style="edgeStyle=orthogonalEdgeStyle;rounded=0;orthogonalLoop=1;jettySize=auto;html=1;fontSize=14;exitX=1;exitY=0.5;exitDx=0;exitDy=0;" edge="1" parent="1" source="qrO7oPqLzRmttPFfa3Ia-9">
          <mxGeometry relative="1" as="geometry">
            <mxPoint x="496.66666666666674" y="365" as="sourcePoint" />
            <mxPoint x="750" y="365" as="targetPoint" />
            <Array as="points" />
          </mxGeometry>
        </mxCell>
        <mxCell id="qrO7oPqLzRmttPFfa3Ia-13" value="Correct Password" style="edgeLabel;html=1;align=center;verticalAlign=middle;resizable=0;points=[];fontSize=14;" vertex="1" connectable="0" parent="qrO7oPqLzRmttPFfa3Ia-11">
          <mxGeometry x="-0.4956" y="4" relative="1" as="geometry">
            <mxPoint x="37" y="4" as="offset" />
          </mxGeometry>
        </mxCell>
        <mxCell id="qrO7oPqLzRmttPFfa3Ia-17" style="edgeStyle=orthogonalEdgeStyle;rounded=0;orthogonalLoop=1;jettySize=auto;html=1;entryX=0.5;entryY=0;entryDx=0;entryDy=0;fontSize=14;" edge="1" parent="1" source="qrO7oPqLzRmttPFfa3Ia-9" target="qrO7oPqLzRmttPFfa3Ia-14">
          <mxGeometry relative="1" as="geometry" />
        </mxCell>
        <mxCell id="qrO7oPqLzRmttPFfa3Ia-20" value="Incorrect Password" style="edgeLabel;html=1;align=center;verticalAlign=middle;resizable=0;points=[];fontSize=14;" vertex="1" connectable="0" parent="qrO7oPqLzRmttPFfa3Ia-17">
          <mxGeometry x="0.0333" y="3" relative="1" as="geometry">
            <mxPoint y="-4" as="offset" />
          </mxGeometry>
        </mxCell>
        <mxCell id="qrO7oPqLzRmttPFfa3Ia-9" value="Login attempt 2" style="rhombus;fontStyle=1;fontSize=14;" vertex="1" parent="1">
          <mxGeometry x="355" y="320" width="150" height="90" as="geometry" />
        </mxCell>
        <mxCell id="qrO7oPqLzRmttPFfa3Ia-18" style="edgeStyle=orthogonalEdgeStyle;rounded=0;orthogonalLoop=1;jettySize=auto;html=1;entryX=0.5;entryY=1;entryDx=0;entryDy=0;fontSize=14;" edge="1" parent="1" source="qrO7oPqLzRmttPFfa3Ia-14" target="qrO7oPqLzRmttPFfa3Ia-7">
          <mxGeometry relative="1" as="geometry" />
        </mxCell>
        <mxCell id="qrO7oPqLzRmttPFfa3Ia-21" value="Correct Password" style="edgeLabel;html=1;align=center;verticalAlign=middle;resizable=0;points=[];fontSize=14;" vertex="1" connectable="0" parent="qrO7oPqLzRmttPFfa3Ia-18">
          <mxGeometry x="-0.6799" relative="1" as="geometry">
            <mxPoint x="35" as="offset" />
          </mxGeometry>
        </mxCell>
        <mxCell id="qrO7oPqLzRmttPFfa3Ia-29" style="edgeStyle=orthogonalEdgeStyle;rounded=0;orthogonalLoop=1;jettySize=auto;html=1;" edge="1" parent="1" source="qrO7oPqLzRmttPFfa3Ia-14" target="qrO7oPqLzRmttPFfa3Ia-30">
          <mxGeometry relative="1" as="geometry">
            <mxPoint x="425" y="580" as="targetPoint" />
          </mxGeometry>
        </mxCell>
        <mxCell id="qrO7oPqLzRmttPFfa3Ia-14" value="Login attempt 3" style="rhombus;fontStyle=1;fontSize=14;" vertex="1" parent="1">
          <mxGeometry x="355" y="469" width="150" height="90" as="geometry" />
        </mxCell>
        <mxCell id="qrO7oPqLzRmttPFfa3Ia-25" value="Blocked for 24 hours" style="text;html=1;align=center;verticalAlign=middle;resizable=0;points=[];autosize=1;strokeColor=none;fillColor=none;fontSize=14;" vertex="1" parent="1">
          <mxGeometry x="354" y="660" width="150" height="30" as="geometry" />
        </mxCell>
        <mxCell id="qrO7oPqLzRmttPFfa3Ia-30" value="" style="ellipse;html=1;shape=endState;fillColor=strokeColor;" vertex="1" parent="1">
          <mxGeometry x="395" y="603" width="70" height="60" as="geometry" />
        </mxCell>
      </root>
    </mxGraphModel>
  </diagram>
</mxfile>
